<?xml version="1.0" standalone="no"?>
<!DOCTYPE svg PUBLIC "-//W3C//DTD SVG 20010904//EN"
 "http://www.w3.org/TR/2001/REC-SVG-20010904/DTD/svg10.dtd">
<svg version="1.0" xmlns="http://www.w3.org/2000/svg"
 width="700.000000pt" height="700.000000pt" viewBox="0 0 700.000000 700.000000"
 preserveAspectRatio="xMidYMid meet">
<metadata>
Created by potrace 1.14, written by Peter Selinger 2001-2017
</metadata>
<g transform="translate(0.000000,700.000000) scale(0.100000,-0.100000)"
fill="#000000" stroke="none">
<path d="M0 3500 l0 -3500 3500 0 3500 0 0 3500 0 3500 -3500 0 -3500 0 0
-3500z m2742 1172 l3 -939 713 939 713 938 616 0 c586 0 615 -1 601 -17 -78
-92 -1641 -2080 -1641 -2088 0 -6 385 -500 856 -1098 471 -598 857 -1090 857
-1092 0 -3 -287 -5 -637 -5 l-638 1 -720 946 -720 947 -3 -947 -2 -947 -525 0
-525 0 0 2150 0 2150 525 0 525 0 2 -938z"/>
</g>
</svg>
